<?xml version="1.0" standalone="no"?>
<!DOCTYPE svg PUBLIC "-//W3C//DTD SVG 20010904//EN"
 "http://www.w3.org/TR/2001/REC-SVG-20010904/DTD/svg10.dtd">
<svg version="1.0" xmlns="http://www.w3.org/2000/svg"
 width="32.000000pt" height="32.000000pt" viewBox="0 0 32.000000 32.000000"
 preserveAspectRatio="xMidYMid meet">

<g transform="translate(0.000000,32.000000) scale(0.100000,-0.100000)"
fill="#000000" stroke="none">
<path d="M137 306 c-10 -8 -27 -12 -37 -9 -14 4 -22 -2 -29 -20 -5 -13 -19
-27 -32 -30 -16 -4 -20 -11 -16 -26 2 -11 -2 -29 -10 -40 -12 -18 -12 -24 0
-42 8 -11 12 -29 10 -40 -4 -15 0 -22 16 -26 13 -3 27 -17 32 -30 7 -18 15
-24 29 -20 10 3 28 -2 39 -10 18 -12 24 -12 42 0 11 8 29 13 39 10 14 -4 22 2
29 20 5 13 19 27 32 30 16 4 20 11 16 26 -2 11 2 29 10 40 12 18 12 24 0 42
-8 11 -12 29 -10 40 4 15 0 22 -16 26 -13 3 -27 17 -32 30 -7 18 -15 24 -29
20 -10 -3 -27 1 -37 9 -10 7 -20 13 -23 13 -3 0 -13 -6 -23 -13z m103 -103 c0
-21 -76 -113 -93 -113 -18 0 -67 52 -67 72 0 22 27 24 51 2 16 -14 19 -13 46
20 30 38 63 48 63 19z"/>
</g>
</svg>
